<svg width="840" height="181" viewBox="0 0 840 181" fill="none" xmlns="http://www.w3.org/2000/svg">
<g clip-path="url(#clip0_1_724)">
<rect width="840" height="181" rx="20" fill="#702DFF"/>
<path d="M723 45C723 45 725.207 65.5997 733.804 74.1964C742.4 82.793 763 85 763 85C763 85 742.4 87.207 733.804 95.8036C725.207 104.4 723 125 723 125C723 125 720.793 104.4 712.196 95.8036C703.6 87.207 683 85 683 85C683 85 703.6 82.793 712.196 74.1964C720.793 65.5997 723 45 723 45Z" fill="white" fill-opacity="0.25"/>
<path d="M793 93C793 93 795.207 113.6 803.804 122.196C812.4 130.793 833 133 833 133C833 133 812.4 135.207 803.804 143.804C795.207 152.4 793 173 793 173C793 173 790.793 152.4 782.196 143.804C773.6 135.207 753 133 753 133C753 133 773.6 130.793 782.196 122.196C790.793 113.6 793 93 793 93Z" fill="white" fill-opacity="0.1"/>
<path d="M652 122C652 122 654.207 152.385 662.804 165.065C671.4 177.745 692 181 692 181C692 181 671.4 184.255 662.804 196.935C654.207 209.615 652 240 652 240C652 240 649.793 209.615 641.196 196.935C632.6 184.255 612 181 612 181C612 181 632.6 177.745 641.196 165.065C649.793 152.385 652 122 652 122Z" fill="white" fill-opacity="0.1"/>
<path d="M783.5 -59C783.5 -59 785.183 -28.6154 791.738 -15.9354C798.293 -3.25534 814 -3.8147e-06 814 -3.8147e-06C814 -3.8147e-06 798.293 3.25534 791.738 15.9354C785.183 28.6154 783.5 59 783.5 59C783.5 59 781.817 28.6154 775.262 15.9354C768.707 3.25534 753 -3.8147e-06 753 -3.8147e-06C753 -3.8147e-06 768.707 -3.25534 775.262 -15.9354C781.817 -28.6154 783.5 -59 783.5 -59Z" fill="white" fill-opacity="0.1"/>
<path d="M652.5 20C652.5 20 654.183 35.4498 660.738 41.8973C667.293 48.3447 683 50 683 50C683 50 667.293 51.6553 660.738 58.1027C654.183 64.5502 652.5 80 652.5 80C652.5 80 650.817 64.5502 644.262 58.1027C637.707 51.6553 622 50 622 50C622 50 637.707 48.3447 644.262 41.8973C650.817 35.4498 652.5 20 652.5 20Z" fill="white" fill-opacity="0.1"/>
</g>
<defs>
<clipPath id="clip0_1_724">
<rect width="840" height="181" rx="20" fill="white"/>
</clipPath>
</defs>
</svg>
